<svg width="500" height="500" version="1.1" baseProfile="full" xmlns="http://www.w3.org/2000/svg">
  <g transform="translate(0,500) scale(1,-1)">
<polyline stroke="black" fill="none" points="209.45571943077056,250.00000000000003 250,223.66571728666264 " />
<polyline stroke="black" fill="none" points="250,223.66571728666264 250,207.86514765866022 " />
<polyline stroke="black" fill="none" points="250,207.86514765866022 209.45571943077056,250.00000000000003 " />
<polyline stroke="black" fill="none" points="250,223.66571728666264 290.54428056922944,250.00000000000003 " />
<polyline stroke="black" fill="none" points="290.54428056922944,250.00000000000003 250,207.86514765866022 " />
<polyline stroke="black" fill="none" points="250,207.86514765866022 250,223.66571728666264 " />
<polyline stroke="black" fill="none" points="250,207.86514765866022 290.54428056922944,250.00000000000003 " />
<polyline stroke="black" fill="none" points="209.45571943077056,250.00000000000003 209.45571943077056,250.00000000000003 " />
<polyline stroke="black" fill="none" points="209.45571943077056,250.00000000000003 250,207.86514765866022 " />
<polyline stroke="black" fill="none" points="209.45571943077056,250.00000000000003 250,223.66571728666264 " />
<polyline stroke="black" fill="none" points="250,223.66571728666264 250,302.6685654266748 " />
<polyline stroke="black" fill="none" points="250,302.6685654266748 209.45571943077056,250.00000000000003 " />
<polyline stroke="black" fill="none" points="250,223.66571728666264 290.54428056922944,250.00000000000003 " />
<polyline stroke="black" fill="none" points="290.54428056922944,250.00000000000003 250,302.6685654266748 " />
<polyline stroke="black" fill="none" points="250,302.6685654266748 250,223.66571728666264 " />
<polyline stroke="black" fill="none" points="250,302.6685654266748 290.54428056922944,250.00000000000003 " />
<polyline stroke="black" fill="none" points="209.45571943077056,250.00000000000003 209.45571943077056,250.00000000000003 " />
<polyline stroke="black" fill="none" points="209.45571943077056,250.00000000000003 250,302.6685654266748 " />
</g>
</svg>